<svg width="45" height="31" viewBox="0 0 45 31" fill="none" xmlns="http://www.w3.org/2000/svg">
    <path d="M42.745 21.7519C42.745 23.0032 41.1387 24.5414 39.8322 24.5414H38.6426C38.6439 16.8834 38.6439 8.29825 38.6426 6.77438C38.6421 6.72926 38.6512 6.68449 38.6693 6.64263C38.6874 6.60077 38.7143 6.56266 38.7483 6.53046C38.7823 6.49826 38.8228 6.47261 38.8675 6.45499C38.9122 6.43737 38.9602 6.42812 39.0088 6.42776H42.3772C42.5795 6.42776 42.7452 6.58553 42.7452 6.7771V21.7519H42.745ZM37.2561 27.2286C37.2561 28.0207 36.8391 29.3475 34.0457 29.3475C28.6324 29.3475 25.3094 25.4058 25.3094 22.5788C25.3094 22.5788 25.3033 13.438 25.3033 6.77727C25.3028 6.73208 25.3118 6.68723 25.33 6.64531C25.3482 6.60339 25.3751 6.56522 25.4092 6.533C25.4433 6.50079 25.4839 6.47516 25.5287 6.45759C25.5735 6.44003 25.6216 6.43087 25.6702 6.43065H29.0427C29.2451 6.43065 29.4114 6.5874 29.4114 6.78015V21.4673C29.4114 23.894 31.4779 25.8623 34.0253 25.8623H37.2579L37.2561 27.2286ZM42.6328 5.11056H38.7526C37.9276 5.11056 37.2557 5.75099 37.2557 6.53662V24.5429H34.0229C32.2393 24.5429 30.7937 23.1656 30.7937 21.467V6.53662C30.7937 5.74912 30.1228 5.10989 29.2961 5.10989H25.4142C24.5876 5.10989 23.9168 5.74912 23.9155 6.53662C23.9135 13.0468 23.9215 22.5792 23.9215 22.5792C23.9221 27.5896 29.8178 30.6663 34.0446 30.6663C36.8798 30.6663 38.6408 29.3462 38.6408 27.2196V25.862H39.8316C41.9204 25.862 44.1297 23.7498 44.1297 21.7519V6.53662C44.1317 5.74912 43.4609 5.10989 42.633 5.10989V5.11056H42.6328ZM19.7002 24.2228C19.7007 24.2679 19.6915 24.3127 19.6733 24.3545C19.6552 24.3964 19.6282 24.4344 19.5942 24.4666C19.5601 24.4987 19.5195 24.5243 19.4748 24.5418C19.43 24.5594 19.382 24.5685 19.3334 24.5687H15.961C15.7558 24.5687 15.5914 24.4106 15.5923 24.2201V9.53274C15.5923 7.10622 13.5253 5.13791 10.9784 5.13791H7.7456V3.77129C7.7456 2.98091 8.16258 1.65234 10.9559 1.65234C16.3694 1.65234 19.6934 5.5939 19.6934 8.42104C19.6934 8.42104 19.6994 17.6062 19.6994 24.2226H19.7002V24.2228ZM2.62284 24.5718C2.41764 24.5662 2.25355 24.4125 2.25592 24.2218V9.24964C2.25592 7.99817 3.86246 6.45799 5.16841 6.45799H6.35906C6.35724 17.4244 6.35724 23.0358 6.35906 24.2211C6.35999 24.3127 6.32185 24.4008 6.25298 24.4663C6.18411 24.5319 6.09013 24.5693 5.9916 24.5706H2.62339L2.62284 24.5718ZM21.0776 8.42121C21.0783 3.41024 15.1824 0.333618 10.9561 0.333618C8.12019 0.333618 6.35906 1.65353 6.35906 3.7803V5.13791H5.16896C3.07947 5.13791 0.870117 7.25007 0.870117 9.24811V24.4633C0.870117 25.2507 1.54091 25.89 2.3672 25.89H6.24669C6.27081 25.89 6.29146 25.8839 6.31558 25.8839C7.10843 25.8484 7.74359 25.2278 7.74359 24.4633V6.45697H10.9769C12.7598 6.45697 14.2061 7.83428 14.2061 9.53291V24.4634C14.2061 25.2509 14.8771 25.8902 15.7032 25.8902H19.5858C20.4124 25.8902 21.0829 25.2526 21.0829 24.4634C21.0858 17.8318 21.0781 8.42087 21.0781 8.42087L21.0776 8.42121Z" fill="white" />
</svg>
