<svg width="45" height="65" viewBox="0 0 129 100" fill="none" xmlns="http://www.w3.org/2000/svg">
    <path d="M125.989 98.6338V98.8908H126.228C126.273 98.8915 126.318 98.8802 126.357 98.858C126.372 98.847 126.385 98.8322 126.393 98.815C126.402 98.7978 126.406 98.7788 126.405 98.7597C126.406 98.741 126.402 98.7223 126.393 98.7056C126.385 98.6888 126.372 98.6745 126.357 98.664C126.318 98.6407 126.273 98.6293 126.228 98.6312H125.989V98.6338ZM126.231 98.4519C126.334 98.4456 126.435 98.4751 126.519 98.5355C126.552 98.5628 126.579 98.5977 126.596 98.6372C126.614 98.6767 126.622 98.7198 126.62 98.7629C126.621 98.8001 126.615 98.8372 126.601 98.8716C126.587 98.9061 126.566 98.9372 126.539 98.9628C126.474 99.0187 126.394 99.0523 126.309 99.0585L126.63 99.4248H126.383L126.087 99.0611H125.991V99.4248H125.784V98.4526H126.234L126.231 98.4519ZM126.167 99.7603C126.275 99.7613 126.383 99.7394 126.482 99.696C126.578 99.6547 126.665 99.5956 126.739 99.5219C126.813 99.4482 126.872 99.3609 126.913 99.2648C126.998 99.0611 126.998 98.8323 126.913 98.6286C126.872 98.5329 126.813 98.4457 126.739 98.3716C126.665 98.2979 126.578 98.2388 126.482 98.1974C126.382 98.1564 126.275 98.1359 126.167 98.137C126.057 98.136 125.947 98.1565 125.845 98.1974C125.747 98.238 125.658 98.2971 125.582 98.3716C125.469 98.4882 125.392 98.6357 125.361 98.7956C125.331 98.9556 125.348 99.121 125.411 99.2712C125.45 99.3677 125.508 99.4551 125.582 99.5283C125.658 99.6027 125.747 99.6619 125.845 99.7024C125.947 99.7458 126.056 99.7677 126.167 99.7667M126.167 97.9031C126.449 97.9028 126.72 98.0136 126.922 98.2116C127.019 98.3066 127.096 98.42 127.149 98.5451C127.204 98.6736 127.232 98.8118 127.232 98.9515C127.232 99.0913 127.204 99.2295 127.149 99.358C127.095 99.4824 127.018 99.5955 126.922 99.6915C126.823 99.786 126.708 99.8622 126.583 99.9164C126.451 99.9723 126.31 100.001 126.167 100C126.022 100.001 125.878 99.9726 125.745 99.9164C125.618 99.8635 125.502 99.7872 125.404 99.6915C125.308 99.592 125.232 99.4751 125.18 99.3471C125.125 99.2186 125.096 99.0803 125.096 98.9406C125.096 98.8009 125.125 98.6626 125.18 98.5342C125.233 98.4091 125.31 98.2957 125.407 98.2007C125.504 98.1033 125.62 98.0268 125.748 97.9757C125.882 97.9196 126.025 97.8912 126.17 97.8922M27.7708 94.1484C27.7708 92.2945 28.9853 90.7715 30.9703 90.7715C32.8673 90.7715 34.1474 92.2289 34.1474 94.1484C34.1474 96.0678 32.8673 97.5253 30.9703 97.5253C28.9853 97.5253 27.7708 96.0023 27.7708 94.1484M36.3098 94.1484V88.8726H34.0163V90.1578C33.2889 89.208 32.1855 88.6123 30.685 88.6123C27.729 88.6123 25.4092 90.9309 25.4092 94.151C25.4092 97.3711 27.7278 99.6896 30.685 99.6896C32.1849 99.6896 33.2889 99.0932 34.0163 98.1441V99.4248H36.3072V94.1484H36.3098ZM113.803 94.1484C113.803 92.2945 115.017 90.7715 117.003 90.7715C118.902 90.7715 120.18 92.2289 120.18 94.1484C120.18 96.0678 118.902 97.5253 117.003 97.5253C115.018 97.5253 113.803 96.0023 113.803 94.1484ZM122.344 94.1484V84.6378H120.049V90.1578C119.322 89.208 118.218 88.6123 116.718 88.6123C113.762 88.6123 111.442 90.9309 111.442 94.151C111.442 97.3711 113.76 99.6896 116.718 99.6896C118.218 99.6896 119.322 99.0932 120.049 98.1441V99.4248H122.344V94.1484ZM64.7746 90.6629C66.2526 90.6629 67.2017 91.5895 67.444 93.2211H61.9716C62.2164 91.6981 63.1411 90.6629 64.7753 90.6629M64.8209 88.6066C61.7299 88.6066 59.5676 90.8557 59.5676 94.1452C59.5676 97.4989 61.8167 99.6838 64.9745 99.6838C66.563 99.6838 68.0178 99.2873 69.2979 98.2058L68.174 96.5061C67.2898 97.213 66.1639 97.6095 65.1056 97.6095C63.6276 97.6095 62.2819 96.9251 61.951 95.0262H69.7824C69.8049 94.7409 69.8281 94.453 69.8281 94.1445C69.8049 90.8563 67.7717 88.6059 64.8196 88.6059M92.5095 94.1445C92.5095 92.2906 93.724 90.7676 95.709 90.7676C97.606 90.7676 98.8861 92.2251 98.8861 94.1445C98.8861 96.064 97.606 97.5214 95.709 97.5214C93.724 97.5214 92.5088 95.9984 92.5088 94.1445M101.048 94.1445V88.8726H98.7556V90.1578C98.0256 89.208 96.9248 88.6123 95.4243 88.6123C92.4683 88.6123 90.1485 90.9309 90.1485 94.151C90.1485 97.3711 92.4671 99.6896 95.4243 99.6896C96.9248 99.6896 98.0256 99.0932 98.7556 98.1441V99.4248H101.048V94.1484L101.048 94.1445ZM79.5578 94.1445C79.5578 97.3441 81.785 99.6831 85.1844 99.6831C86.7729 99.6831 87.8313 99.3297 88.9758 98.4256L87.8744 96.5717C87.0133 97.1905 86.1091 97.5214 85.1112 97.5214C83.2804 97.4989 81.9341 96.1752 81.9341 94.1445C81.9341 92.1139 83.2804 90.7908 85.1112 90.7676C86.1066 90.7676 87.0107 91.0986 87.8744 91.7174L88.9758 89.8635C87.8294 88.9593 86.771 88.6059 85.1844 88.6059C81.785 88.6059 79.5578 90.9444 79.5578 94.1445M109.124 88.6059C107.801 88.6059 106.939 89.2247 106.344 90.1514V88.8726H104.071V99.419H106.367V93.5071C106.367 91.7617 107.117 90.7921 108.616 90.7921C109.107 90.785 109.594 90.8752 110.05 91.0575L110.757 88.8957C110.249 88.6959 109.587 88.6078 109.123 88.6078M47.6485 89.7112C46.5452 88.9838 45.0248 88.6078 43.3476 88.6078C40.6756 88.6078 38.9554 89.8886 38.9554 91.9841C38.9554 93.7037 40.2361 94.7646 42.5944 95.0956L43.6779 95.2498C44.9355 95.4265 45.5292 95.7575 45.5292 96.3532C45.5292 97.1686 44.6938 97.6339 43.1252 97.6339C41.5367 97.6339 40.3903 97.1262 39.6172 96.5305L38.5396 98.3189C39.7972 99.2455 41.3857 99.6876 43.106 99.6876C46.1519 99.6876 47.9171 98.2533 47.9171 96.2452C47.9171 94.3913 46.5278 93.4216 44.2324 93.0907L43.1516 92.9339C42.1588 92.8053 41.3632 92.6055 41.3632 91.8986C41.3632 91.1275 42.1131 90.6635 43.3713 90.6635C44.7176 90.6635 46.0208 91.1712 46.6596 91.5677L47.6524 89.7138L47.6485 89.7112ZM77.2412 88.6098C75.918 88.6098 75.0563 89.2286 74.4632 90.1552V88.8726H72.1903V99.419H74.4837V93.5071C74.4837 91.7617 75.2337 90.7921 76.7329 90.7921C77.2238 90.785 77.7113 90.8752 78.1672 91.0575L78.874 88.8957C78.3664 88.6959 77.7045 88.6078 77.2399 88.6078M57.67 88.8726H53.9197V85.6731H51.6012V88.8726H49.462V90.9688H51.6012V95.78C51.6012 98.227 52.551 99.6844 55.2641 99.6844C56.2594 99.6844 57.4059 99.376 58.1333 98.869L57.4708 96.9052C56.7864 97.3016 56.0365 97.5015 55.4401 97.5015C54.2937 97.5015 53.9197 96.7946 53.9197 95.7363V90.9707H57.67V88.8726ZM23.3812 99.4216V92.8028C23.3812 90.3101 21.7926 88.6329 19.2319 88.6104C17.8856 88.5879 16.4969 89.0069 15.5247 90.4868C14.7972 89.3173 13.6508 88.6104 12.0392 88.6104C10.9127 88.6104 9.81191 88.9414 8.95017 90.1764V88.8726H6.65479V99.419H8.96817V93.5713C8.96817 91.7405 9.98348 90.7676 11.5514 90.7676C13.0744 90.7676 13.8449 91.7605 13.8449 93.5482V99.4177H16.1634V93.57C16.1634 91.7393 17.2218 90.7663 18.7441 90.7663C20.3102 90.7663 21.0575 91.7592 21.0575 93.5469V99.4165L23.3812 99.4216Z" fill="black" />
    <path d="M127.297 64.3394V62.7971H126.895L126.43 63.8555L125.968 62.7971H125.565V64.3394H125.851V63.1775L126.285 64.18H126.581L127.015 63.175V64.3394H127.298H127.297ZM124.749 64.3394V63.0612H125.263V62.801H123.949V63.0612H124.463V64.3394H124.746H124.749Z" fill="#FF9A03" />
    <path d="M81.6476 70.9533H46.8916V8.49207H81.6482L81.6476 70.9533Z" fill="#FB5733" />
    <path d="M49.0951 39.724C49.0951 27.0537 55.0276 15.767 64.2657 8.49336C57.273 2.97947 48.624 -0.0131148 39.7188 4.32054e-05C17.7822 4.32054e-05 0 17.7848 0 39.724C0 61.6632 17.7822 79.448 39.7188 79.448C48.6242 79.4613 57.2734 76.4687 64.2664 70.9547C55.0289 63.6823 49.0951 52.3949 49.0951 39.724Z" fill="#A70000" />
    <path d="M128.537 39.7242C128.537 61.6635 110.755 79.4482 88.8183 79.4482C79.912 79.4613 71.2618 76.4688 64.2676 70.9549C73.5082 63.6812 79.4408 52.3951 79.4408 39.7242C79.4408 27.0533 73.5082 15.7673 64.2676 8.49361C71.2617 2.97988 79.9116 -0.01264 88.8177 0.000285839C110.754 0.000285839 128.537 17.785 128.537 39.7242" fill="#FF9A03" />
</svg>