<svg width="43" height="60" viewBox="0 0 243 229" fill="none" xmlns="http://www.w3.org/2000/svg">
    <rect width="243" height="229" fill="white" />
    <path d="M69.6364 55.4545V102H58.5227V55.4545H69.6364ZM93.0057 102.659C89.339 102.659 86.1875 101.909 83.5511 100.409C80.9299 98.8939 78.9072 96.7879 77.483 94.0909C76.0739 91.3788 75.3693 88.2348 75.3693 84.6591C75.3693 81.0682 76.0739 77.9242 77.483 75.2273C78.9072 72.5152 80.9299 70.4091 83.5511 68.9091C86.1875 67.3939 89.339 66.6364 93.0057 66.6364C96.6723 66.6364 99.8163 67.3939 102.438 68.9091C105.074 70.4091 107.097 72.5152 108.506 75.2273C109.93 77.9242 110.642 81.0682 110.642 84.6591C110.642 88.2348 109.93 91.3788 108.506 94.0909C107.097 96.7879 105.074 98.8939 102.438 100.409C99.8163 101.909 96.6723 102.659 93.0057 102.659ZM93.0739 94.2727C94.4072 94.2727 95.536 93.8636 96.4602 93.0455C97.3845 92.2273 98.089 91.0909 98.5739 89.6364C99.0739 88.1818 99.3239 86.5 99.3239 84.5909C99.3239 82.6515 99.0739 80.9545 98.5739 79.5C98.089 78.0455 97.3845 76.9091 96.4602 76.0909C95.536 75.2727 94.4072 74.8636 93.0739 74.8636C91.6951 74.8636 90.5284 75.2727 89.5739 76.0909C88.6345 76.9091 87.9148 78.0455 87.4148 79.5C86.9299 80.9545 86.6875 82.6515 86.6875 84.5909C86.6875 86.5 86.9299 88.1818 87.4148 89.6364C87.9148 91.0909 88.6345 92.2273 89.5739 93.0455C90.5284 93.8636 91.6951 94.2727 93.0739 94.2727ZM132.608 115.818C129.29 115.818 126.449 115.356 124.085 114.432C121.722 113.508 119.866 112.242 118.517 110.636C117.169 109.03 116.358 107.212 116.085 105.182L126.608 104.591C126.805 105.303 127.169 105.924 127.699 106.455C128.244 106.985 128.949 107.394 129.812 107.682C130.691 107.97 131.722 108.114 132.903 108.114C134.767 108.114 136.305 107.659 137.517 106.75C138.744 105.856 139.358 104.288 139.358 102.045V95.9091H138.972C138.532 96.9848 137.866 97.947 136.972 98.7955C136.078 99.6439 134.964 100.311 133.631 100.795C132.313 101.28 130.797 101.523 129.085 101.523C126.54 101.523 124.206 100.932 122.085 99.75C119.979 98.553 118.29 96.7045 117.017 94.2045C115.759 91.6894 115.131 88.4545 115.131 84.5C115.131 80.4242 115.782 77.0682 117.085 74.4318C118.388 71.7803 120.093 69.8182 122.199 68.5455C124.32 67.2727 126.6 66.6364 129.04 66.6364C130.873 66.6364 132.441 66.9545 133.744 67.5909C135.063 68.2121 136.146 69.0152 136.994 70C137.843 70.9848 138.487 72.0076 138.926 73.0682H139.244V67.0909H150.312V102.136C150.312 105.091 149.57 107.583 148.085 109.614C146.6 111.644 144.525 113.182 141.858 114.227C139.191 115.288 136.108 115.818 132.608 115.818ZM132.949 93.4318C134.297 93.4318 135.449 93.0758 136.403 92.3636C137.358 91.6515 138.093 90.6288 138.608 89.2955C139.123 87.9621 139.381 86.3636 139.381 84.5C139.381 82.6061 139.123 80.9773 138.608 79.6136C138.108 78.2348 137.373 77.1742 136.403 76.4318C135.449 75.6894 134.297 75.3182 132.949 75.3182C131.57 75.3182 130.403 75.697 129.449 76.4545C128.494 77.2121 127.767 78.2803 127.267 79.6591C126.782 81.0227 126.54 82.6364 126.54 84.5C126.54 86.3636 126.79 87.9621 127.29 89.2955C127.79 90.6288 128.509 91.6515 129.449 92.3636C130.403 93.0758 131.57 93.4318 132.949 93.4318ZM173.693 102.659C170.027 102.659 166.875 101.909 164.239 100.409C161.617 98.8939 159.595 96.7879 158.17 94.0909C156.761 91.3788 156.057 88.2348 156.057 84.6591C156.057 81.0682 156.761 77.9242 158.17 75.2273C159.595 72.5152 161.617 70.4091 164.239 68.9091C166.875 67.3939 170.027 66.6364 173.693 66.6364C177.36 66.6364 180.504 67.3939 183.125 68.9091C185.761 70.4091 187.784 72.5152 189.193 75.2273C190.617 77.9242 191.33 81.0682 191.33 84.6591C191.33 88.2348 190.617 91.3788 189.193 94.0909C187.784 96.7879 185.761 98.8939 183.125 100.409C180.504 101.909 177.36 102.659 173.693 102.659ZM173.761 94.2727C175.095 94.2727 176.223 93.8636 177.148 93.0455C178.072 92.2273 178.777 91.0909 179.261 89.6364C179.761 88.1818 180.011 86.5 180.011 84.5909C180.011 82.6515 179.761 80.9545 179.261 79.5C178.777 78.0455 178.072 76.9091 177.148 76.0909C176.223 75.2727 175.095 74.8636 173.761 74.8636C172.383 74.8636 171.216 75.2727 170.261 76.0909C169.322 76.9091 168.602 78.0455 168.102 79.5C167.617 80.9545 167.375 82.6515 167.375 84.5909C167.375 86.5 167.617 88.1818 168.102 89.6364C168.602 91.0909 169.322 92.2273 170.261 93.0455C171.216 93.8636 172.383 94.2727 173.761 94.2727ZM74.8182 179.659C71.1364 179.659 67.9773 178.902 65.3409 177.386C62.7197 175.871 60.7045 173.765 59.2955 171.068C57.8864 168.356 57.1818 165.22 57.1818 161.659C57.1818 158.083 57.8864 154.947 59.2955 152.25C60.7197 149.538 62.7424 147.424 65.3636 145.909C68 144.394 71.1439 143.636 74.7955 143.636C78.0227 143.636 80.8333 144.22 83.2273 145.386C85.6364 146.553 87.5152 148.205 88.8636 150.341C90.2273 152.462 90.947 154.955 91.0227 157.818H80.6364C80.4242 156.03 79.8182 154.629 78.8182 153.614C77.8333 152.598 76.5455 152.091 74.9545 152.091C73.6667 152.091 72.5379 152.455 71.5682 153.182C70.5985 153.894 69.8409 154.955 69.2955 156.364C68.7652 157.758 68.5 159.485 68.5 161.545C68.5 163.606 68.7652 165.348 69.2955 166.773C69.8409 168.182 70.5985 169.25 71.5682 169.977C72.5379 170.689 73.6667 171.045 74.9545 171.045C75.9848 171.045 76.8939 170.826 77.6818 170.386C78.4848 169.947 79.1439 169.303 79.6591 168.455C80.1742 167.591 80.5 166.545 80.6364 165.318H91.0227C90.9167 168.197 90.197 170.712 88.8636 172.864C87.5455 175.015 85.6894 176.689 83.2955 177.886C80.9167 179.068 78.0909 179.659 74.8182 179.659ZM106.551 179.591C104.324 179.591 102.347 179.22 100.619 178.477C98.9072 177.72 97.5511 176.583 96.5511 175.068C95.5663 173.538 95.0739 171.621 95.0739 169.318C95.0739 167.379 95.4148 165.742 96.0966 164.409C96.7784 163.076 97.7178 161.992 98.9148 161.159C100.112 160.326 101.491 159.697 103.051 159.273C104.612 158.833 106.278 158.538 108.051 158.386C110.036 158.205 111.634 158.015 112.847 157.818C114.059 157.606 114.938 157.311 115.483 156.932C116.044 156.538 116.324 155.985 116.324 155.273V155.159C116.324 153.992 115.922 153.091 115.119 152.455C114.316 151.818 113.233 151.5 111.869 151.5C110.4 151.5 109.218 151.818 108.324 152.455C107.43 153.091 106.862 153.97 106.619 155.091L96.3693 154.727C96.6723 152.606 97.4527 150.712 98.7102 149.045C99.983 147.364 101.725 146.045 103.938 145.091C106.165 144.121 108.839 143.636 111.96 143.636C114.188 143.636 116.241 143.902 118.119 144.432C119.998 144.947 121.634 145.705 123.028 146.705C124.422 147.689 125.498 148.902 126.256 150.341C127.028 151.78 127.415 153.424 127.415 155.273V179H116.96V174.136H116.688C116.066 175.318 115.271 176.318 114.301 177.136C113.347 177.955 112.218 178.568 110.915 178.977C109.627 179.386 108.172 179.591 106.551 179.591ZM109.983 172.318C111.18 172.318 112.256 172.076 113.21 171.591C114.18 171.106 114.953 170.439 115.528 169.591C116.104 168.727 116.392 167.727 116.392 166.591V163.273C116.074 163.439 115.688 163.591 115.233 163.727C114.794 163.864 114.309 163.992 113.778 164.114C113.248 164.235 112.703 164.341 112.142 164.432C111.581 164.523 111.044 164.606 110.528 164.682C109.483 164.848 108.589 165.106 107.847 165.455C107.119 165.803 106.559 166.258 106.165 166.818C105.786 167.364 105.597 168.015 105.597 168.773C105.597 169.924 106.006 170.803 106.824 171.409C107.657 172.015 108.71 172.318 109.983 172.318ZM134.21 179V144.091H145.006V150.455H145.369C146.006 148.152 147.044 146.439 148.483 145.318C149.922 144.182 151.597 143.614 153.506 143.614C154.021 143.614 154.551 143.652 155.097 143.727C155.642 143.788 156.15 143.886 156.619 144.023V153.682C156.089 153.5 155.392 153.356 154.528 153.25C153.68 153.144 152.922 153.091 152.256 153.091C150.938 153.091 149.748 153.386 148.688 153.977C147.642 154.553 146.816 155.364 146.21 156.409C145.619 157.439 145.324 158.652 145.324 160.045V179H134.21ZM172.085 179.5C169.509 179.5 167.169 178.833 165.062 177.5C162.956 176.167 161.275 174.167 160.017 171.5C158.759 168.833 158.131 165.523 158.131 161.568C158.131 157.462 158.782 154.083 160.085 151.432C161.388 148.78 163.093 146.818 165.199 145.545C167.32 144.273 169.6 143.636 172.04 143.636C173.873 143.636 175.441 143.955 176.744 144.591C178.047 145.212 179.123 146.015 179.972 147C180.82 147.985 181.464 149.008 181.903 150.068H182.131V132.455H193.244V179H182.244V173.341H181.903C181.434 174.417 180.767 175.424 179.903 176.364C179.04 177.303 177.956 178.061 176.653 178.636C175.366 179.212 173.843 179.5 172.085 179.5ZM175.949 170.841C177.297 170.841 178.449 170.462 179.403 169.705C180.358 168.932 181.093 167.848 181.608 166.455C182.123 165.061 182.381 163.424 182.381 161.545C182.381 159.636 182.123 157.992 181.608 156.614C181.108 155.235 180.373 154.174 179.403 153.432C178.449 152.689 177.297 152.318 175.949 152.318C174.57 152.318 173.403 152.697 172.449 153.455C171.494 154.212 170.767 155.28 170.267 156.659C169.782 158.038 169.54 159.667 169.54 161.545C169.54 163.424 169.79 165.061 170.29 166.455C170.79 167.848 171.509 168.932 172.449 169.705C173.403 170.462 174.57 170.841 175.949 170.841Z" fill="black" />
</svg>
