<svg width="45" height="60" viewBox="0 0 159 100" fill="none" xmlns="http://www.w3.org/2000/svg">
    <path fill-rule="evenodd" clip-rule="evenodd" d="M0.532715 12.6139C0.532715 5.98648 5.9053 0.613892 12.5327 0.613892H145.982C152.609 0.613892 157.982 5.98648 157.982 12.6139V87.3862C157.982 94.0136 152.609 99.3862 145.982 99.3862H12.5327C5.90531 99.3862 0.532715 94.0136 0.532715 87.3862V12.6139Z" fill="white" />
    <path fill-rule="evenodd" clip-rule="evenodd" d="M158.514 11.3907C158.514 3.77713 154.557 0 146.882 0H11.6313C7.79489 0 4.97687 1.01926 3.11796 3.11711C1.02011 5.2158 0 7.91351 0 11.3907V88.6093C0 92.0865 1.02011 94.724 3.11796 96.882C5.2768 98.9807 8.03467 100 11.6313 100H146.882C154.557 100 158.514 96.1644 158.514 88.6101V11.3907ZM146.882 1.79875C153.237 1.79875 156.475 5.03618 156.475 11.3907V88.6093C156.475 95.0231 153.237 98.2004 146.882 98.2004H11.6313C8.57353 98.2004 6.23591 97.3014 4.49731 95.5027C2.69856 93.7632 1.7996 91.3655 1.7996 88.6084V11.3907C1.7996 5.03618 4.97687 1.79875 11.6313 1.79875H146.882Z" fill="#315881" />
    <path fill-rule="evenodd" clip-rule="evenodd" d="M12.7098 6.23511C10.1324 6.23511 8.51327 6.65451 7.61432 7.55431C6.83483 8.57357 6.47559 10.252 6.47559 12.71V29.4359H152.038V12.71C152.038 8.3338 149.879 6.23511 145.563 6.23511H12.7098Z" fill="#315881" />
    <path fill-rule="evenodd" clip-rule="evenodd" d="M6.47559 87.0502C6.47559 91.4848 8.57343 93.764 12.7098 93.764H145.563C149.879 93.764 152.038 91.4856 152.038 87.0502V70.3234H6.47559V87.0502Z" fill="#DFA43B" />
    <path fill-rule="evenodd" clip-rule="evenodd" d="M54.6771 36.5707C54.6771 37.3502 54.5568 37.9492 54.2577 38.3695L43.766 56.6553L43.106 34.3526H26.3198L31.955 37.0503C33.5733 38.0695 34.413 39.3879 34.413 41.0672L35.9711 64.7493H44.1845L63.8497 34.3526H53.7782C54.3772 34.8923 54.6771 35.7311 54.6771 36.5707ZM122.544 35.2515L123.202 34.3517H112.95C113.309 34.711 113.429 34.8914 113.429 35.0109C113.308 35.4896 113.069 35.7904 112.95 36.1496L98.0218 63.3673C97.6626 63.8469 97.3016 64.2671 96.8831 64.7476H105.336L104.916 63.8478C104.916 63.0683 105.336 61.6304 106.235 59.5919L108.034 56.2342H116.727C117.088 59.0522 117.328 61.3907 117.447 63.1301L116.727 64.7484H127.219L125.66 62.4701L122.544 35.2515ZM116.308 51.9783H110.073L115.408 41.7264L116.308 51.9783ZM90.4082 32.7936C87.1717 32.7936 84.413 33.6934 81.955 35.4913C79.2565 37.0503 77.9381 39.0286 77.9381 41.4874C77.9381 44.3055 78.8972 46.7634 80.8154 48.6214L86.632 52.6375C88.7307 54.1372 89.7499 55.4555 89.7499 56.6553C89.7499 57.794 89.2085 58.8133 88.1909 59.5928C87.1717 60.3722 86.0312 60.7315 84.5934 60.7315C82.4947 60.7315 78.8981 59.2335 73.922 56.4757V62.0507C77.8186 64.3892 81.5966 65.5889 85.2526 65.5889C88.7306 65.5889 91.6681 64.6289 94.1871 62.4709C96.8848 60.4917 98.2031 58.1549 98.2031 55.5767C98.2031 53.417 97.2432 51.4395 95.0852 49.3408L89.5084 45.3239C87.6521 43.825 86.632 42.5058 86.632 41.4874C86.632 39.1498 88.0105 37.9501 90.8285 37.9501C92.7467 37.9501 95.5647 39.0295 99.341 41.3078L100.481 35.4921C97.3025 33.6925 94.0058 32.7936 90.4082 32.7936ZM68.1064 64.7484C67.9861 63.4894 67.7463 62.3506 67.626 61.1509L75.2404 36.5707L77.0392 34.3526H66.0678C66.1882 34.8923 66.3076 35.6116 66.4279 36.1513C66.4279 36.691 66.4279 37.351 66.3076 37.9501L58.694 62.2905L57.1351 64.7493H68.1064V64.7484Z" fill="#315881" />
</svg>
