<svg width="44" height="31" viewBox="0 0 44 31" fill="none" xmlns="http://www.w3.org/2000/svg">
<path d="M41.8749 21.9183C41.8749 23.1696 40.2685 24.7078 38.962 24.7078H37.7725C37.7738 17.0498 37.7738 8.46464 37.7725 6.94076C37.772 6.89564 37.781 6.85087 37.7992 6.80901C37.8173 6.76716 37.8442 6.72904 37.8782 6.69684C37.9122 6.66464 37.9527 6.63899 37.9974 6.62137C38.0421 6.60375 38.0901 6.5945 38.1387 6.59414H41.5071C41.7093 6.59414 41.8751 6.75191 41.8751 6.94348V21.9183H41.8749ZM36.3859 27.395C36.3859 28.187 35.969 29.5139 33.1756 29.5139C27.7623 29.5139 24.4392 25.5722 24.4392 22.7452C24.4392 22.7452 24.4332 13.6043 24.4332 6.94365C24.4326 6.89846 24.4417 6.85361 24.4599 6.81169C24.4781 6.76977 24.505 6.7316 24.5391 6.69939C24.5732 6.66717 24.6138 6.64154 24.6586 6.62397C24.7034 6.60641 24.7515 6.59725 24.8001 6.59703H28.1725C28.375 6.59703 28.5413 6.75378 28.5413 6.94654V21.6337C28.5413 24.0604 30.6077 26.0287 33.1551 26.0287H36.3878L36.3859 27.395ZM41.7627 5.27695H37.8825C37.0575 5.27695 36.3856 5.91737 36.3856 6.703V24.7093H33.1528C31.3692 24.7093 29.9236 23.332 29.9236 21.6333V6.703C29.9236 5.9155 29.2526 5.27627 28.426 5.27627H24.5441C23.7175 5.27627 23.0467 5.9155 23.0454 6.703C23.0434 13.2132 23.0514 22.7456 23.0514 22.7456C23.052 27.756 28.9477 30.8326 33.1745 30.8326C36.0097 30.8326 37.7707 29.5126 37.7707 27.386V26.0283H38.9615C41.0502 26.0283 43.2596 23.9162 43.2596 21.9183V6.703C43.2616 5.9155 42.5908 5.27627 41.7629 5.27627V5.27695H41.7627ZM18.8301 24.3892C18.8305 24.4343 18.8214 24.4791 18.8032 24.5209C18.785 24.5627 18.7581 24.6008 18.724 24.633C18.69 24.6651 18.6494 24.6907 18.6046 24.7082C18.5599 24.7257 18.5119 24.7349 18.4633 24.7351H15.0909C14.8857 24.7351 14.7212 24.577 14.7222 24.3864V9.69912C14.7222 7.27261 12.6551 5.30429 10.1083 5.30429H6.87548V3.93768C6.87548 3.14729 7.29246 1.81872 10.0858 1.81872C15.4993 1.81872 18.8233 5.76028 18.8233 8.58742C18.8233 8.58742 18.8293 17.7726 18.8293 24.389H18.8301V24.3892ZM1.75272 24.7382C1.54752 24.7326 1.38343 24.5789 1.38581 24.3881V9.41602C1.38581 8.16455 2.99234 6.62437 4.2983 6.62437H5.48895C5.48712 17.5907 5.48712 23.2022 5.48895 24.3875C5.48987 24.479 5.45173 24.5672 5.38286 24.6327C5.31399 24.6982 5.22001 24.7357 5.12148 24.737H1.75327L1.75272 24.7382ZM20.2074 8.58759C20.2082 3.57662 14.3123 0.5 10.086 0.5C7.25007 0.5 5.48895 1.81991 5.48895 3.94668V5.30429H4.29884C2.20936 5.30429 0 7.41645 0 9.41449V24.6296C0 25.4171 0.670792 26.0564 1.49709 26.0564H5.37657C5.40069 26.0564 5.42134 26.0503 5.44546 26.0503C6.23831 26.0148 6.87347 25.3942 6.87347 24.6296V6.62335H10.1068C11.8897 6.62335 13.336 8.00066 13.336 9.69929V24.6298C13.336 25.4173 14.007 26.0565 14.8331 26.0565H18.7157C19.5423 26.0565 20.2127 25.419 20.2127 24.6298C20.2157 17.9982 20.208 8.58725 20.208 8.58725L20.2074 8.58759Z" fill="white"/>
</svg>
