<svg width="33" height="21" viewBox="0 0 33 21" fill="none" xmlns="http://www.w3.org/2000/svg">
    <path d="M21.1969 18.5533H12.4475V2.82947H21.197L21.1969 18.5533Z" fill="#FB5733" />
    <path d="M32.9998 10.6915C32.9998 16.2144 28.5234 20.6915 23.0011 20.6915C20.7591 20.6947 18.5815 19.9414 16.8208 18.5534C19.147 16.7223 20.6405 13.8812 20.6405 10.6915C20.6405 7.50173 19.147 4.66061 16.8208 2.82956C18.5815 1.44155 20.759 0.688224 23.001 0.691478C28.5232 0.691478 32.9997 5.16856 32.9997 10.6915" fill="#FF9A03" />
    <path d="M13.0021 10.6915C13.0021 7.50189 14.4956 4.66061 16.8211 2.82956C15.0608 1.44151 12.8835 0.688166 10.6418 0.691478C5.1195 0.691478 0.643066 5.16856 0.643066 10.6915C0.643066 16.2144 5.1195 20.6915 10.6418 20.6915C12.8836 20.6948 15.0609 19.9415 16.8213 18.5534C14.4959 16.7227 13.0021 13.8812 13.0021 10.6915Z" fill="#A70000" />
</svg>